<?xml version="1.0" encoding="UTF-8" standalone="no"?>
<!-- Created with Inkscape (http://www.inkscape.org/) -->

<svg
   xmlns:dc="http://purl.org/dc/elements/1.1/"
   xmlns:cc="http://creativecommons.org/ns#"
   xmlns:rdf="http://www.w3.org/1999/02/22-rdf-syntax-ns#"
   xmlns:svg="http://www.w3.org/2000/svg"
   xmlns="http://www.w3.org/2000/svg"
   xmlns:sodipodi="http://sodipodi.sourceforge.net/DTD/sodipodi-0.dtd"
   xmlns:inkscape="http://www.inkscape.org/namespaces/inkscape"
   version="1.1"
   id="svg831"
   width="341"
   height="75"
   viewBox="0 0 341 75"
   sodipodi:docname="bgh3.svg"
   inkscape:version="0.92.3 (2405546, 2018-03-11)">
  <metadata
     id="metadata837">
    <rdf:RDF>
      <cc:Work
         rdf:about="">
        <dc:format>image/svg+xml</dc:format>
        <dc:type
           rdf:resource="http://purl.org/dc/dcmitype/StillImage" />
        <dc:title></dc:title>
      </cc:Work>
    </rdf:RDF>
  </metadata>
  <defs
     id="defs835" />
  <sodipodi:namedview
     pagecolor="#ffffff"
     bordercolor="#666666"
     borderopacity="0"
     objecttolerance="10"
     gridtolerance="10"
     guidetolerance="10"
     inkscape:pageopacity="0"
     inkscape:pageshadow="2"
     inkscape:window-width="1920"
     inkscape:window-height="1027"
     id="namedview833"
     showgrid="false"
     inkscape:zoom="2.9528447"
     inkscape:cx="142.31217"
     inkscape:cy="48.531499"
     inkscape:window-x="-8"
     inkscape:window-y="-8"
     inkscape:window-maximized="1"
     inkscape:current-layer="svg831" />
  <path
     style="fill:#797979"
     d="m 1.4593157,72.855815 c 0.338094,-1.06524 3.461567,-15.0661 6.941052,-31.11302 C 11.879853,25.695875 15.129289,12.172611 15.621337,11.691097 16.113385,11.209583 72.31597,8.9675915 140.51597,6.7088945 c 68.2,-2.258698 135.8707,-4.556616 150.37933,-5.106484 14.50864,-0.549869 26.46189,-0.87046204 26.56278,-0.71242904 0.10089,0.15803204 5.43222,14.88530154 11.84739,32.72726354 6.41518,17.84197 11.43398,32.66992 11.15289,32.95101 -0.28109,0.28109 -28.73312,2.05056 -63.22673,3.93214 -62.18147,3.39193 -63.62564,3.42478 -169.55134,3.85664 -105.3203993,0.4294 -106.82697134,0.4081 -106.2209743,-1.50122 z"
     id="path5107"
     inkscape:connector-curvature="0" />
  <path
     style="fill:#429d90;fill-opacity:1;stroke-width:0.33865649;stroke:none"
     d="M 11.92943,74.225475 C 6.2518713,74.090927 2.6964788,73.871129 2.2512157,73.627157 1.550958,73.243466 1.5564061,73.201592 3.328265,65.348544 4.3077417,61.007408 6.6517037,50.44538 8.537069,41.877371 13.60882,18.828891 15.278688,12.241293 16.140789,11.88084 17.75489,11.205968 67.987593,9.2787125 192.09468,5.1300971 c 22.44445,-0.750267 53.76171,-1.8179943 69.5939,-2.3727276 41.09777,-1.4399965 55.3183,-1.85302758 55.55767,-1.6136561 0.25153,0.2515253 1.5265,3.6883738 7.32185,19.7369556 8.88915,24.615951 15.98965,45.192 15.69634,45.485318 -0.59014,0.590129 -83.49372,5.324489 -113.6268,6.488864 -18.67254,0.721528 -46.83624,1.040956 -120.22305,1.363546 -79.228983,0.348275 -80.084986,0.348339 -94.48516,0.0071 z"
     id="path5113"
     inkscape:connector-curvature="0" />
</svg>
